<svg width="67" height="66" viewBox="0 0 67 66" fill="none" xmlns="http://www.w3.org/2000/svg">
<g clip-path="url(#clip0_242_83)">
<path d="M51.0312 0H15.9688C7.4256 0 0.5 6.9256 0.5 15.4688V50.5312C0.5 59.0744 7.4256 66 15.9688 66H51.0312C59.5744 66 66.5 59.0744 66.5 50.5312V15.4688C66.5 6.9256 59.5744 0 51.0312 0Z" fill="url(#paint0_linear_242_83)"/>
<path fill-rule="evenodd" clip-rule="evenodd" d="M41.1619 8.51065C41.5832 9.03349 41.7977 9.73913 42.2272 11.1499L51.6106 41.9742C48.086 40.1452 44.3031 38.8645 40.3924 38.1761L34.283 17.5305C34.2465 17.4075 34.1809 17.2951 34.0916 17.203C34.0023 17.1108 33.8921 17.0416 33.7703 17.0013C33.6486 16.9609 33.5188 16.9507 33.3922 16.9713C33.2656 16.9919 33.1458 17.0429 33.0432 17.1198C32.9057 17.2229 32.8055 17.3678 32.7572 17.5328L26.7216 38.1658C22.7932 38.8509 18.993 40.1336 15.4531 41.9696L24.8821 11.1429C25.3134 9.73423 25.5284 9.03014 25.9497 8.50833C26.3215 8.04752 26.8051 7.68964 27.3545 7.46883C27.9769 7.21875 28.7132 7.21875 30.1863 7.21875H36.9212C38.3961 7.21875 39.1335 7.21875 39.7563 7.46934C40.3062 7.69066 40.7901 8.04901 41.1619 8.51065Z" fill="#31274A"/>
<path fill-rule="evenodd" clip-rule="evenodd" d="M42.2849 43.4412C40.738 44.764 37.6504 45.6658 34.0942 45.6658C29.7291 45.6658 26.0705 44.3069 25.0999 42.4795C24.7528 43.527 24.675 44.7256 24.675 45.4915C24.675 45.4915 24.4463 49.2517 27.0616 51.867C27.0616 51.2148 27.3206 50.5894 27.7818 50.1282C28.2429 49.6671 28.8684 49.408 29.5206 49.408C31.8481 49.408 31.8455 51.4388 31.8432 53.0864V53.2334C31.8432 55.7342 33.3715 57.8779 35.5451 58.7813C35.2105 58.0927 35.0372 57.3369 35.0383 56.5713C35.0383 54.1863 36.4387 53.2981 38.066 52.2663C39.3608 51.4452 40.7994 50.5328 41.7909 48.7023C42.3248 47.7165 42.6036 46.6127 42.6017 45.4915C42.6017 44.7766 42.4906 44.0878 42.2849 43.4412Z" fill="#FF5D01"/>
<path fill-rule="evenodd" clip-rule="evenodd" d="M42.2849 43.4412C40.738 44.764 37.6504 45.6658 34.0942 45.6658C29.7291 45.6658 26.0705 44.3069 25.0999 42.4795C24.7528 43.527 24.675 44.7256 24.675 45.4915C24.675 45.4915 24.4463 49.2517 27.0616 51.867C27.0616 51.2148 27.3206 50.5894 27.7818 50.1282C28.2429 49.6671 28.8684 49.408 29.5206 49.408C31.8481 49.408 31.8455 51.4388 31.8432 53.0864V53.2334C31.8432 55.7342 33.3715 57.8779 35.5451 58.7813C35.2105 58.0927 35.0372 57.3369 35.0383 56.5713C35.0383 54.1863 36.4387 53.2981 38.066 52.2663C39.3608 51.4452 40.7994 50.5328 41.7909 48.7023C42.3248 47.7165 42.6036 46.6127 42.6017 45.4915C42.6017 44.7766 42.4906 44.0878 42.2849 43.4412Z" fill="url(#paint1_linear_242_83)"/>
</g>
<defs>
<linearGradient id="paint0_linear_242_83" x1="33.5" y1="0" x2="33.5" y2="66" gradientUnits="userSpaceOnUse">
<stop offset="0.193" stop-color="#FCB3B2"/>
<stop offset="1" stop-color="#C587EE"/>
</linearGradient>
<linearGradient id="paint1_linear_242_83" x1="49.2497" y1="32.6816" x2="40.0911" y2="51.8544" gradientUnits="userSpaceOnUse">
<stop stop-color="#FF1639"/>
<stop offset="1" stop-color="#FF1639" stop-opacity="0"/>
</linearGradient>
<clipPath id="clip0_242_83">
<rect width="66" height="66" fill="white" transform="translate(0.5)"/>
</clipPath>
</defs>
</svg>
