<svg width="90" height="90" viewBox="0 0 90 90" fill="none" xmlns="http://www.w3.org/2000/svg">
<path d="M28.125 42.1875H61.875C62.6209 42.1875 63.3363 41.8912 63.8637 41.3637C64.3912 40.8363 64.6875 40.1209 64.6875 39.375V22.5C64.6875 21.7541 64.3912 21.0387 63.8637 20.5113C63.3363 19.9838 62.6209 19.6875 61.875 19.6875H28.125C27.3791 19.6875 26.6637 19.9838 26.1363 20.5113C25.6088 21.0387 25.3125 21.7541 25.3125 22.5V39.375C25.3125 40.1209 25.6088 40.8363 26.1363 41.3637C26.6637 41.8912 27.3791 42.1875 28.125 42.1875ZM30.9375 25.3125H59.0625V36.5625H30.9375V25.3125ZM70.3125 8.4375H19.6875C18.1957 8.4375 16.7649 9.03013 15.71 10.085C14.6551 11.1399 14.0625 12.5707 14.0625 14.0625V75.9375C14.0625 77.4293 14.6551 78.8601 15.71 79.915C16.7649 80.9699 18.1957 81.5625 19.6875 81.5625H70.3125C71.8043 81.5625 73.2351 80.9699 74.29 79.915C75.3449 78.8601 75.9375 77.4293 75.9375 75.9375V14.0625C75.9375 12.5707 75.3449 11.1399 74.29 10.085C73.2351 9.03013 71.8043 8.4375 70.3125 8.4375ZM70.3125 75.9375H19.6875V14.0625H70.3125V75.9375ZM35.1562 52.0312C35.1562 52.8656 34.9088 53.6813 34.4453 54.3751C33.9817 55.0688 33.3228 55.6096 32.5519 55.9289C31.7811 56.2482 30.9328 56.3317 30.1145 56.1689C29.2961 56.0062 28.5444 55.6044 27.9544 55.0144C27.3644 54.4244 26.9626 53.6726 26.7998 52.8543C26.637 52.0359 26.7206 51.1877 27.0399 50.4168C27.3592 49.6459 27.8999 48.9871 28.5937 48.5235C29.2875 48.0599 30.1031 47.8125 30.9375 47.8125C32.0564 47.8125 33.1294 48.257 33.9206 49.0481C34.7118 49.8393 35.1562 50.9124 35.1562 52.0312ZM49.2188 52.0312C49.2188 52.8656 48.9713 53.6813 48.5078 54.3751C48.0442 55.0688 47.3853 55.6096 46.6144 55.9289C45.8436 56.2482 44.9953 56.3317 44.177 56.1689C43.3586 56.0062 42.6069 55.6044 42.0169 55.0144C41.4269 54.4244 41.0251 53.6726 40.8623 52.8543C40.6995 52.0359 40.7831 51.1877 41.1024 50.4168C41.4217 49.6459 41.9624 48.9871 42.6562 48.5235C43.35 48.0599 44.1656 47.8125 45 47.8125C46.1189 47.8125 47.1919 48.257 47.9831 49.0481C48.7743 49.8393 49.2188 50.9124 49.2188 52.0312ZM63.2812 52.0312C63.2812 52.8656 63.0338 53.6813 62.5703 54.3751C62.1067 55.0688 61.4478 55.6096 60.6769 55.9289C59.9061 56.2482 59.0578 56.3317 58.2395 56.1689C57.4211 56.0062 56.6694 55.6044 56.0794 55.0144C55.4894 54.4244 55.0876 53.6726 54.9248 52.8543C54.762 52.0359 54.8456 51.1877 55.1649 50.4168C55.4842 49.6459 56.0249 48.9871 56.7187 48.5235C57.4125 48.0599 58.2281 47.8125 59.0625 47.8125C60.1814 47.8125 61.2544 48.257 62.0456 49.0481C62.8368 49.8393 63.2812 50.9124 63.2812 52.0312ZM35.1562 66.0938C35.1562 66.9281 34.9088 67.7438 34.4453 68.4376C33.9817 69.1313 33.3228 69.6721 32.5519 69.9914C31.7811 70.3107 30.9328 70.3942 30.1145 70.2314C29.2961 70.0687 28.5444 69.6669 27.9544 69.0769C27.3644 68.4869 26.9626 67.7351 26.7998 66.9168C26.637 66.0984 26.7206 65.2502 27.0399 64.4793C27.3592 63.7084 27.8999 63.0496 28.5937 62.586C29.2875 62.1224 30.1031 61.875 30.9375 61.875C32.0564 61.875 33.1294 62.3195 33.9206 63.1106C34.7118 63.9018 35.1562 64.9749 35.1562 66.0938ZM49.2188 66.0938C49.2188 66.9281 48.9713 67.7438 48.5078 68.4376C48.0442 69.1313 47.3853 69.6721 46.6144 69.9914C45.8436 70.3107 44.9953 70.3942 44.177 70.2314C43.3586 70.0687 42.6069 69.6669 42.0169 69.0769C41.4269 68.4869 41.0251 67.7351 40.8623 66.9168C40.6995 66.0984 40.7831 65.2502 41.1024 64.4793C41.4217 63.7084 41.9624 63.0496 42.6562 62.586C43.35 62.1224 44.1656 61.875 45 61.875C46.1189 61.875 47.1919 62.3195 47.9831 63.1106C48.7743 63.9018 49.2188 64.9749 49.2188 66.0938ZM63.2812 66.0938C63.2812 66.9281 63.0338 67.7438 62.5703 68.4376C62.1067 69.1313 61.4478 69.6721 60.6769 69.9914C59.9061 70.3107 59.0578 70.3942 58.2395 70.2314C57.4211 70.0687 56.6694 69.6669 56.0794 69.0769C55.4894 68.4869 55.0876 67.7351 54.9248 66.9168C54.762 66.0984 54.8456 65.2502 55.1649 64.4793C55.4842 63.7084 56.0249 63.0496 56.7187 62.586C57.4125 62.1224 58.2281 61.875 59.0625 61.875C60.1814 61.875 61.2544 62.3195 62.0456 63.1106C62.8368 63.9018 63.2812 64.9749 63.2812 66.0938Z" fill="#C3C3C3"/>
</svg>
