<svg width="90" height="90" viewBox="0 0 90 90" fill="none" xmlns="http://www.w3.org/2000/svg">
<path d="M23.7656 20.6367L19.1777 33.75H70.8223L66.2344 20.6367C65.4434 18.3867 63.3164 16.875 60.9258 16.875H29.0742C26.6836 16.875 24.5566 18.3867 23.7656 20.6367ZM6.96094 34.5938L13.1484 16.9277C15.5215 10.1602 21.9023 5.625 29.0742 5.625H60.9258C68.0977 5.625 74.4785 10.1602 76.8516 16.9277L83.0391 34.5938C87.1172 36.2813 90 40.3066 90 45V78.75C90 81.8613 87.4863 84.375 84.375 84.375H78.75C75.6387 84.375 73.125 81.8613 73.125 78.75V70.3125H16.875V78.75C16.875 81.8613 14.3613 84.375 11.25 84.375H5.625C2.51367 84.375 0 81.8613 0 78.75V45C0 40.3066 2.88281 36.2813 6.96094 34.5938ZM22.5 50.625C22.5 49.1332 21.9074 47.7024 20.8525 46.6475C19.7976 45.5926 18.3668 45 16.875 45C15.3832 45 13.9524 45.5926 12.8975 46.6475C11.8426 47.7024 11.25 49.1332 11.25 50.625C11.25 52.1168 11.8426 53.5476 12.8975 54.6025C13.9524 55.6574 15.3832 56.25 16.875 56.25C18.3668 56.25 19.7976 55.6574 20.8525 54.6025C21.9074 53.5476 22.5 52.1168 22.5 50.625ZM73.125 56.25C74.6168 56.25 76.0476 55.6574 77.1025 54.6025C78.1574 53.5476 78.75 52.1168 78.75 50.625C78.75 49.1332 78.1574 47.7024 77.1025 46.6475C76.0476 45.5926 74.6168 45 73.125 45C71.6332 45 70.2024 45.5926 69.1475 46.6475C68.0926 47.7024 67.5 49.1332 67.5 50.625C67.5 52.1168 68.0926 53.5476 69.1475 54.6025C70.2024 55.6574 71.6332 56.25 73.125 56.25Z" fill="#C3C3C3"/>
</svg>
