<svg width="90" height="90" viewBox="0 0 90 90" fill="none" xmlns="http://www.w3.org/2000/svg">
<path d="M18.75 67.5V81.6225L24.4312 78.2138L42.2888 67.5H60C64.1363 67.5 67.5 64.1363 67.5 60V30C67.5 25.8637 64.1363 22.5 60 22.5H15C10.8637 22.5 7.5 25.8637 7.5 30V60C7.5 64.1363 10.8637 67.5 15 67.5H18.75ZM15 30H60V60H40.2112L26.25 68.3775V60H15V30Z" fill="#C3C3C3"/>
<path d="M75 7.5H30C25.8637 7.5 22.5 10.8637 22.5 15H67.5C71.6363 15 75 18.3637 75 22.5V52.5C79.1363 52.5 82.5 49.1363 82.5 45V15C82.5 10.8637 79.1363 7.5 75 7.5Z" fill="#C3C3C3"/>
</svg>
