<svg width="67" height="66" viewBox="0 0 67 66" fill="none" xmlns="http://www.w3.org/2000/svg">
<g clip-path="url(#clip0_242_94)">
<path d="M51.0312 0H15.9688C7.4256 0 0.5 6.9256 0.5 15.4688V50.5312C0.5 59.0744 7.4256 66 15.9688 66H51.0312C59.5744 66 66.5 59.0744 66.5 50.5312V15.4688C66.5 6.9256 59.5744 0 51.0312 0Z" fill="#0277BD"/>
<path d="M14.3582 26.4647L15.0961 34.6998H33.5247V26.4647H14.3582ZM33.5245 9.79688H12.875L13.6237 18.0319H33.5245V9.79688ZM33.5245 56.4199V47.8521L33.4884 47.8616L24.317 45.3853L23.7307 38.8173H15.464L16.6177 51.7476L33.4866 56.4305L33.5245 56.4199Z" fill="#EBEBEB"/>
<path d="M43.6366 34.6998L42.6807 45.3799L33.4961 47.859V56.4264L50.3784 51.7476L50.5022 50.3562L52.4373 28.6762L52.6382 26.4647L54.125 9.79688H33.4961V18.0319H45.1L44.3508 26.4647H33.4961V34.6998H43.6366Z" fill="white"/>
</g>
<defs>
<clipPath id="clip0_242_94">
<rect width="66" height="66" fill="white" transform="translate(0.5)"/>
</clipPath>
</defs>
</svg>
