<svg width="72" height="88" viewBox="0 0 72 88" fill="none" xmlns="http://www.w3.org/2000/svg">
<path d="M0.73473 88L15.2234 0.72727H44.712C51.5302 0.72727 56.9279 1.87784 60.9052 4.17897C64.9109 6.48011 67.6239 9.64773 69.0444 13.6818C70.4933 17.7159 70.7916 22.3182 69.9393 27.4886C69.087 32.6023 67.2688 37.1477 64.4847 41.125C61.729 45.1023 57.979 48.2273 53.2347 50.5C48.5188 52.7727 42.7802 53.9091 36.0188 53.9091H12.1552L13.8597 44.3636H37.3825C42.0415 44.3636 45.9052 43.6818 48.9734 42.3182C52.0415 40.9545 54.4279 39.0085 56.1325 36.4801C57.837 33.9517 58.9734 30.9545 59.5416 27.4886C60.1097 23.9659 59.9535 20.9119 59.0728 18.3267C58.2205 15.7131 56.4734 13.696 53.8313 12.2756C51.2177 10.8267 47.5529 10.1023 42.837 10.1023H24.2575L11.3029 88H0.73473ZM48.2915 48.7955L63.2916 88H51.0188L36.3597 48.7955H48.2915Z" fill="url(#paint0_linear_386_2)"/>
<defs>
<linearGradient id="paint0_linear_386_2" x1="78.5" y1="-11.5" x2="-29.5974" y2="56.8265" gradientUnits="userSpaceOnUse">
<stop stop-color="#E1364B" stop-opacity="0.47"/>
<stop offset="1" stop-color="#FF1639"/>
</linearGradient>
</defs>
</svg>
