<svg width="67" height="66" viewBox="0 0 67 66" fill="none" xmlns="http://www.w3.org/2000/svg">
<g clip-path="url(#clip0_242_107)">
<path d="M51.0312 0H15.9688C7.4256 0 0.5 6.9256 0.5 15.4688V50.5312C0.5 59.0744 7.4256 66 15.9688 66H51.0312C59.5744 66 66.5 59.0744 66.5 50.5312V15.4688C66.5 6.9256 59.5744 0 51.0312 0Z" fill="#242938"/>
<mask id="mask0_242_107" style="mask-type:luminance" maskUnits="userSpaceOnUse" x="16" y="7" width="35" height="52">
<path d="M16.2266 7.21875H50.6084V58.7812H16.2266V7.21875Z" fill="white"/>
</mask>
<g mask="url(#mask0_242_107)">
<path d="M24.8234 58.7812C29.5672 58.7812 33.4171 54.9313 33.4171 50.1876V41.5937H24.8234C20.0797 41.5937 16.2295 45.4438 16.2295 50.1876C16.2295 54.9313 20.0797 58.7812 24.8234 58.7812Z" fill="#0ACF83"/>
<path d="M16.2295 33C16.2295 28.2563 20.0797 24.4063 24.8234 24.4063H33.4171V41.5937H24.8234C20.0797 41.5937 16.2295 37.7438 16.2295 33Z" fill="#A259FF"/>
<path d="M16.2295 15.8124C16.2295 11.0687 20.0797 7.21875 24.8234 7.21875H33.4171V24.4063H24.8234C20.0797 24.4063 16.2295 20.5562 16.2295 15.8124Z" fill="#F24E1E"/>
<path d="M33.417 7.21875H42.0107C46.7544 7.21875 50.6046 11.0687 50.6046 15.8124C50.6046 20.5562 46.7544 24.4063 42.0107 24.4063H33.417V7.21875Z" fill="#FF7262"/>
<path d="M50.6046 33C50.6046 37.7438 46.7544 41.5937 42.0107 41.5937C37.2669 41.5937 33.417 37.7438 33.417 33C33.417 28.2563 37.2669 24.4063 42.0107 24.4063C46.7544 24.4063 50.6046 28.2563 50.6046 33Z" fill="#1ABCFE"/>
</g>
</g>
<defs>
<clipPath id="clip0_242_107">
<rect width="66" height="66" fill="white" transform="translate(0.5)"/>
</clipPath>
</defs>
</svg>
