<svg width="67" height="66" viewBox="0 0 67 66" fill="none" xmlns="http://www.w3.org/2000/svg">
<g clip-path="url(#clip0_242_119)">
<path d="M51.0312 0H15.9688C7.4256 0 0.5 6.9256 0.5 15.4688V50.5312C0.5 59.0744 7.4256 66 15.9688 66H51.0312C59.5744 66 66.5 59.0744 66.5 50.5312V15.4688C66.5 6.9256 59.5744 0 51.0312 0Z" fill="#F03C2E"/>
<mask id="mask0_242_119" style="mask-type:luminance" maskUnits="userSpaceOnUse" x="7" y="7" width="53" height="52">
<path d="M7.71875 7.21875H59.2812V58.7812H7.71875V7.21875Z" fill="white"/>
</mask>
<g mask="url(#mask0_242_119)">
<path d="M58.3078 30.7039L35.7958 8.192C35.3317 7.72732 34.7401 7.41084 34.0959 7.28265C33.4518 7.15446 32.7841 7.22034 32.1774 7.47193C31.7746 7.63887 31.4087 7.88355 31.1005 8.192L26.4277 12.8649L32.3574 18.7945C33.7367 18.3111 35.3158 18.6414 36.4146 19.7405C36.9377 20.2645 37.3028 20.9251 37.4683 21.6468C37.6339 22.3685 37.5931 23.1222 37.3507 23.8219L43.0661 29.5373C44.4488 29.0604 46.0439 29.368 47.1476 30.475C47.7004 31.0276 48.0769 31.7319 48.2293 32.4986C48.3817 33.2653 48.3032 34.0599 48.0038 34.782C47.6023 35.7501 46.8328 36.5191 45.8645 36.92C44.8962 37.321 43.8083 37.321 42.84 36.9201C42.3605 36.7213 41.9248 36.4302 41.5579 36.0631C40.3978 34.9029 40.1111 33.1949 40.6976 31.7656L35.3673 26.4353V40.4621C35.7543 40.6536 36.1079 40.906 36.4146 41.2098C37.1556 41.9508 37.5719 42.9559 37.5719 44.0038C37.5719 45.0518 37.1556 46.0569 36.4146 46.7979C35.6735 47.5389 34.6685 47.9552 33.6205 47.9552C32.5726 47.9552 31.5675 47.5389 30.8265 46.7979C30.2734 46.2455 29.8967 45.5414 29.744 44.7748C29.5914 44.0082 29.6697 43.2135 29.969 42.4914C30.1677 42.0119 30.4591 41.5764 30.8265 41.2098C31.2083 40.8295 31.6322 40.541 32.1204 40.3477V26.1904C31.6359 25.9923 31.196 25.6993 30.8265 25.3285C30.2717 24.7743 29.8945 24.0675 29.743 23.2981C29.5915 22.5287 29.6725 21.7316 29.9757 21.0084L24.1267 15.163L8.69019 30.5833C8.22549 31.0477 7.90897 31.6395 7.7807 32.2838C7.65244 32.9281 7.71818 33.596 7.96961 34.203C8.1367 34.6059 8.38156 34.9721 8.69019 35.2804L31.2037 57.7905C31.5119 58.0989 31.8778 58.3435 32.2806 58.5106C33.0942 58.8474 34.0084 58.8474 34.8221 58.5106C35.2248 58.3435 35.5907 58.0989 35.8989 57.7905L58.3078 35.4173C58.6163 35.1089 58.8611 34.7428 59.0281 34.3399C59.1951 33.9369 59.2812 33.505 59.2813 33.0688C59.2813 32.6326 59.1953 32.2006 59.0283 31.7976C58.8612 31.3946 58.6164 31.0285 58.3078 30.7202" fill="white"/>
</g>
</g>
<defs>
<clipPath id="clip0_242_119">
<rect width="66" height="66" fill="white" transform="translate(0.5)"/>
</clipPath>
</defs>
</svg>
