<svg width="67" height="66" viewBox="0 0 67 66" fill="none" xmlns="http://www.w3.org/2000/svg">
<g clip-path="url(#clip0_242_127)">
<path d="M22.8008 46.0625C22.9154 45.8906 22.8724 45.7044 22.6719 45.5039C22.4141 45.3034 22.2135 45.2747 22.0703 45.418C21.9557 45.5898 21.9987 45.776 22.1992 45.9766C22.457 46.1771 22.6576 46.2057 22.8008 46.0625ZM21.5977 44.3008C21.4544 44.1003 21.2826 44.043 21.082 44.1289C20.9102 44.2435 20.9102 44.4154 21.082 44.6445C21.2826 44.8737 21.4544 44.9453 21.5977 44.8594C21.7695 44.7448 21.7695 44.5586 21.5977 44.3008ZM19.8359 42.582C19.8932 42.4674 19.8216 42.3529 19.6211 42.2383C19.4206 42.181 19.306 42.2096 19.2773 42.3242C19.1914 42.4674 19.2487 42.582 19.4492 42.668C19.6784 42.7253 19.8073 42.6966 19.8359 42.582ZM20.7383 43.5703C20.7956 43.5417 20.8171 43.4772 20.8027 43.377C20.7884 43.2767 20.7383 43.1979 20.6523 43.1406C20.4805 42.9401 20.3372 42.8971 20.2227 43.0117C20.1081 43.1263 20.1224 43.2839 20.2656 43.4844C20.4375 43.6562 20.5951 43.6849 20.7383 43.5703ZM24.4336 46.793C24.4909 46.5924 24.362 46.4349 24.0469 46.3203C23.7891 46.2344 23.6029 46.2917 23.4883 46.4922C23.431 46.6927 23.5599 46.8503 23.875 46.9648C24.1328 47.0508 24.319 46.9935 24.4336 46.793ZM26.2383 46.9219C26.2383 46.6927 26.0664 46.5781 25.7227 46.5781C25.4362 46.5781 25.293 46.6927 25.293 46.9219C25.293 47.151 25.4505 47.2656 25.7656 47.2656C26.0807 47.2656 26.2383 47.151 26.2383 46.9219ZM27.9141 46.6211C27.8568 46.4206 27.6706 46.349 27.3555 46.4062C27.0404 46.4635 26.9115 46.5924 26.9688 46.793C27.026 47.0221 27.1979 47.1081 27.4844 47.0508C27.7708 46.9935 27.9141 46.8503 27.9141 46.6211ZM55.5 33C55.5 26.9271 53.3516 21.7422 49.0547 17.4453C44.7578 13.1484 39.5729 11 33.5 11C27.4271 11 22.2422 13.1484 17.9453 17.4453C13.6484 21.7422 11.5 26.9271 11.5 33C11.5 37.7839 12.9036 42.0879 15.7109 45.9121C18.5182 49.7363 22.1276 52.3932 26.5391 53.8828C27.0547 53.9688 27.4342 53.8971 27.6777 53.668C27.9212 53.4388 28.043 53.1523 28.043 52.8086C28.043 51.319 28.0286 49.9583 28 48.7266C27.8281 48.7552 27.6061 48.791 27.334 48.834C27.0618 48.877 26.5534 48.9056 25.8086 48.9199C25.0638 48.9342 24.3763 48.877 23.7461 48.748C23.1159 48.6191 22.4928 48.3327 21.877 47.8887C21.2611 47.4447 20.8385 46.8503 20.6094 46.1055C19.9505 44.4154 19.1341 43.3555 18.1602 42.9258C18.1029 42.8971 18.0384 42.847 17.9668 42.7754L17.623 42.4316L17.3223 42.0234L17.4941 41.7012L18.332 41.5508C18.5039 41.5508 18.7188 41.5794 18.9766 41.6367C19.2344 41.694 19.6641 41.916 20.2656 42.3027C20.8672 42.6895 21.3398 43.1979 21.6836 43.8281C22.1419 44.6302 22.679 45.2318 23.2949 45.6328C23.9108 46.0339 24.5339 46.2344 25.1641 46.2344C25.7943 46.2344 26.3385 46.1842 26.7969 46.084C27.2552 45.9837 27.6849 45.8477 28.0859 45.6758C28.2865 44.3294 28.7591 43.3411 29.5039 42.7109C28.1003 42.5391 26.8685 42.2741 25.8086 41.916C24.7487 41.5579 23.7031 40.9993 22.6719 40.2402C21.6406 39.4811 20.8457 38.3926 20.2871 36.9746C19.7285 35.5566 19.4492 33.8451 19.4492 31.8398C19.4492 29.5768 20.2083 27.6146 21.7266 25.9531C21.0391 24.1771 21.1107 22.2292 21.9414 20.1094C22.4857 19.9375 23.2663 20.0449 24.2832 20.4316C25.3001 20.8184 26.1667 21.2409 26.8828 21.6992L28 22.3867C29.6615 21.8997 31.4948 21.6562 33.5 21.6562C35.5052 21.6562 37.3385 21.8997 39 22.3867C39.3151 22.1862 39.7233 21.9284 40.2246 21.6133C40.7259 21.2982 41.5208 20.9258 42.6094 20.4961C43.6979 20.0664 44.5143 19.9375 45.0586 20.1094C45.8893 22.2292 45.9609 24.1771 45.2734 25.9531C46.7917 27.6146 47.5508 29.5768 47.5508 31.8398C47.5508 33.4727 47.3503 34.9121 46.9492 36.1582C46.5482 37.4043 46.0397 38.4069 45.4238 39.166C44.8079 39.9251 44.0417 40.5625 43.125 41.0781C42.2083 41.5938 41.3132 41.9661 40.4395 42.1953C39.5658 42.4245 38.5846 42.5964 37.4961 42.7109C38.4987 43.599 39 44.9596 39 46.793C39 47.9388 38.9928 49.2135 38.9785 50.6172C38.9642 52.0208 38.957 52.7513 38.957 52.8086C38.957 53.1523 39.0788 53.4388 39.3223 53.668C39.5658 53.8971 39.9453 53.9688 40.4609 53.8828C44.8724 52.3932 48.4818 49.7363 51.2891 45.9121C54.0964 42.0879 55.5 37.7839 55.5 33ZM66.5 12.375V53.625C66.5 57.0339 65.2897 59.9486 62.8691 62.3691C60.4486 64.7897 57.5339 66 54.125 66H12.875C9.46615 66 6.55143 64.7897 4.13086 62.3691C1.71029 59.9486 0.5 57.0339 0.5 53.625V12.375C0.5 8.96615 1.71029 6.05143 4.13086 3.63086C6.55143 1.21029 9.46615 0 12.875 0H54.125C57.5339 0 60.4486 1.21029 62.8691 3.63086C65.2897 6.05143 66.5 8.96615 66.5 12.375Z" fill="white"/>
</g>
<defs>
<clipPath id="clip0_242_127">
<rect width="66" height="66" fill="white" transform="translate(0.5)"/>
</clipPath>
</defs>
</svg>
