<svg width="67" height="66" viewBox="0 0 67 66" fill="none" xmlns="http://www.w3.org/2000/svg">
<g clip-path="url(#clip0_242_89)">
<path d="M51.0312 0H15.9688C7.4256 0 0.5 6.9256 0.5 15.4688V50.5312C0.5 59.0744 7.4256 66 15.9688 66H51.0312C59.5744 66 66.5 59.0744 66.5 50.5312V15.4688C66.5 6.9256 59.5744 0 51.0312 0Z" fill="#E14E1D"/>
<path d="M12.875 9.79688L15.0948 34.6998H43.6372L42.6794 45.3809L33.4894 47.8657L24.3167 45.3845L23.7034 38.5262H15.4377L16.6197 51.7471L33.4876 56.4321L50.3769 51.7471L52.6413 26.4657H22.6265L21.8729 18.0327H53.3874L54.125 9.79688H12.875Z" fill="white"/>
<path d="M33.5 9.79688H12.875L15.0948 34.6998H33.5V26.4657H22.6265L21.8729 18.0327H33.5V9.79688ZM33.5 47.8621L33.4894 47.8657L24.3167 45.3845L23.7034 38.5262H15.4377L16.6197 51.7471L33.4876 56.4321L33.5003 56.4285L33.5 47.8621Z" fill="#EBEBEB"/>
</g>
<defs>
<clipPath id="clip0_242_89">
<rect width="66" height="66" fill="white" transform="translate(0.5)"/>
</clipPath>
</defs>
</svg>
