<svg width="90" height="90" viewBox="0 0 90 90" fill="none" xmlns="http://www.w3.org/2000/svg">
<path d="M71.25 18.75V71.25H18.75V18.75H71.25ZM71.25 11.25H18.75C14.625 11.25 11.25 14.625 11.25 18.75V71.25C11.25 75.375 14.625 78.75 18.75 78.75H71.25C75.375 78.75 78.75 75.375 78.75 71.25V18.75C78.75 14.625 75.375 11.25 71.25 11.25ZM33.75 26.25H26.25V63.75H33.75V26.25ZM56.25 26.25H41.25V63.75H48.75V48.75H56.25C60.375 48.75 63.75 45.375 63.75 41.25V33.75C63.75 29.625 60.375 26.25 56.25 26.25ZM56.25 41.25H48.75V33.75H56.25V41.25Z" fill="#C3C3C3"/>
</svg>
