<svg width="66" height="66" viewBox="0 0 66 66" fill="none" xmlns="http://www.w3.org/2000/svg">
<g clip-path="url(#clip0_256_374)">
<path d="M50.5312 0H15.4688C6.9256 0 0 6.9256 0 15.4688V50.5312C0 59.0744 6.9256 66 15.4688 66H50.5312C59.0744 66 66 59.0744 66 50.5312V15.4688C66 6.9256 59.0744 0 50.5312 0Z" fill="#F0DB4F"/>
<path d="M17.3538 55.1543L22.4043 52.0977C23.3789 53.8253 24.2652 55.2871 26.3914 55.2871C28.4294 55.2871 29.7143 54.4899 29.7143 51.389V30.3004H35.9168V51.4766C35.9168 57.9005 32.1512 60.8247 26.6572 60.8247C21.6956 60.8247 18.8156 58.255 17.3535 55.1538M39.2856 54.4897L44.3357 51.5658C45.6652 53.7369 47.3931 55.3317 50.4497 55.3317C53.0198 55.3317 54.6585 54.0468 54.6585 52.2746C54.6585 50.1481 52.975 49.3948 50.1395 48.1547L48.5893 47.4898C44.1145 45.5851 41.146 43.1926 41.146 38.1421C41.146 33.4901 44.6904 29.9457 50.2285 29.9457C54.1715 29.9457 57.0069 31.3193 59.0446 34.9078L54.2155 38.009C53.1521 36.104 52.0007 35.351 50.2285 35.351C48.4119 35.351 47.26 36.5029 47.26 38.009C47.26 39.8697 48.4119 40.623 51.07 41.7751L52.6205 42.4395C57.8925 44.6993 60.8609 47.0026 60.8609 52.1859C60.8609 57.7685 56.475 60.8252 50.5827 60.8252C44.8234 60.8252 41.1019 58.0784 39.2856 54.4897Z" fill="#323330"/>
</g>
<defs>
<clipPath id="clip0_256_374">
<rect width="66" height="66" fill="white"/>
</clipPath>
</defs>
</svg>
