<svg width="67" height="66" viewBox="0 0 67 66" fill="none" xmlns="http://www.w3.org/2000/svg">
<g clip-path="url(#clip0_242_149)">
<path d="M51.0312 0H15.9688C7.4256 0 0.5 6.9256 0.5 15.4688V50.5312C0.5 59.0744 7.4256 66 15.9688 66H51.0312C59.5744 66 66.5 59.0744 66.5 50.5312V15.4688C66.5 6.9256 59.5744 0 51.0312 0Z" fill="#242938"/>
<path d="M31.8113 7.23269C31.7005 7.24274 31.3475 7.27806 31.0299 7.30307C23.7065 7.96333 16.8466 11.9151 12.5017 17.9886C10.0826 21.3657 8.53498 25.1963 7.95052 29.254C7.74402 30.6704 7.71875 31.0889 7.71875 33.009C7.71875 34.9295 7.74402 35.3479 7.95078 36.7641C9.35173 46.4465 16.242 54.5818 25.5867 57.5958C27.2602 58.1352 29.0241 58.5031 31.0302 58.7248C31.8116 58.8104 35.1884 58.8104 35.9698 58.7248C39.4325 58.3417 42.3659 57.485 45.2591 56.008C45.7025 55.7814 45.7884 55.7208 45.7278 55.6705C45.6876 55.6401 43.7973 53.1047 41.5293 50.0404L37.4064 44.4709L32.2398 36.8247C29.3972 32.621 27.0586 29.1834 27.0382 29.1834C27.0181 29.1785 26.998 32.5757 26.9879 36.7239C26.9727 43.987 26.9678 44.2793 26.8771 44.4505C26.7461 44.6975 26.6453 44.7983 26.4334 44.9094C26.2722 44.9898 26.1309 45.0051 25.3699 45.0051H24.498L24.2659 44.8589C24.1223 44.7689 24.0056 44.6418 23.9282 44.491L23.8225 44.2641L23.8328 34.1584L23.8478 24.0475L24.004 23.8508C24.0847 23.7451 24.2561 23.6089 24.377 23.5435C24.5836 23.4426 24.6643 23.4326 25.5362 23.4326C26.5646 23.4326 26.7358 23.4728 27.0031 23.7652C27.0787 23.8459 29.8759 28.0596 33.2229 33.1351C36.6112 38.2725 40.0016 43.4086 43.3941 48.5433L47.4768 54.7279L47.6836 54.5918C49.513 53.4023 51.4487 51.7087 52.9808 49.9445C56.2419 46.1995 58.3438 41.6331 59.0495 36.7641C59.256 35.3479 59.2812 34.9295 59.2812 33.009C59.2812 31.0889 59.256 30.6704 59.0495 29.254C57.6483 19.5716 50.758 11.4366 41.4133 8.42249C39.7651 7.88804 38.0112 7.52015 36.0454 7.29843C35.5615 7.2479 32.2298 7.19272 31.8116 7.23294M42.3659 22.8278C42.6077 22.9487 42.8045 23.1805 42.8751 23.4223C42.9153 23.5535 42.9254 26.3559 42.9153 32.6713L42.9001 41.7339L41.3024 39.2842L39.6996 36.8347V30.2471C39.6996 25.988 39.7197 23.5937 39.7499 23.4777C39.8306 23.1957 40.0069 22.9739 40.249 22.8427C40.4555 22.737 40.5313 22.7267 41.3225 22.7267C42.0687 22.7267 42.1996 22.737 42.3659 22.8278Z" fill="white"/>
</g>
<defs>
<clipPath id="clip0_242_149">
<rect width="66" height="66" fill="white" transform="translate(0.5)"/>
</clipPath>
</defs>
</svg>
