<svg width="404" height="530" viewBox="0 0 404 530" fill="none" xmlns="http://www.w3.org/2000/svg">
<path fill-rule="evenodd" clip-rule="evenodd" d="M279.77 0L283.442 3.49698C285.634 5.58431 287.714 7.46177 289.657 9.20032C289.986 9.49551 290.313 9.78763 290.637 10.0767C292.204 11.4766 293.69 12.8041 295.031 14.0574C298.188 17.0091 301.011 19.9625 302.498 23.2398C304.135 26.8501 304.041 30.5606 302.113 34.5266C300.886 37.0506 298.913 39.693 296.22 42.581C299.313 43.51 301.614 44.2742 303.296 44.8886C304.587 45.3602 305.563 45.7615 306.272 46.0996C306.622 46.2665 306.964 46.4448 307.269 46.635L307.286 46.6459C307.459 46.7531 308.121 47.1635 308.6 47.8822L309.13 48.6764L309.182 49.6295L305.688 49.8237C309.182 49.6295 309.183 49.6301 309.183 49.6307L309.183 49.6325L309.183 49.6376L309.184 49.6541L309.187 49.7117C309.189 49.7609 309.193 49.8316 309.197 49.9228C309.205 50.105 309.217 50.3692 309.229 50.7065C309.253 51.3811 309.28 52.3497 309.294 53.5437C309.321 55.9284 309.294 59.2296 309.075 62.8935C308.649 70.0358 307.466 79.2314 304.093 85.4963C300.685 91.8251 295.98 95.0909 292.054 96.7372C291.231 97.0824 290.446 97.3552 289.717 97.5709C291.257 101.315 292.421 103.972 293.27 105.802C293.615 106.546 293.904 107.144 294.14 107.615C298.177 107.867 303.49 108.869 308.426 111.199C313.825 113.748 319.078 118.055 321.329 124.953C321.337 124.954 321.345 124.955 321.353 124.955C321.383 124.958 321.412 124.96 321.441 124.963C322.256 124.816 323.175 124.898 324.069 125.382C325.202 125.995 325.749 126.974 325.999 127.536C326.509 128.684 326.62 130.013 326.62 131.03C326.62 131.84 326.476 132.99 325.698 134.039C324.934 135.069 323.929 135.504 323.245 135.705C323.076 140.137 322.041 145.388 319.872 150.13C317.146 156.093 312.35 161.786 304.696 163.369C303.525 163.612 302.317 163.71 301.1 163.692C301.021 170.707 300.438 184.481 298.491 194.216C297.868 197.332 297.23 200.289 296.611 203.158C295.905 206.429 295.223 209.588 294.616 212.74C293.501 218.524 292.839 223.361 293.027 226.934C293.37 233.459 298.29 240.702 307.917 248.654C312.828 252.711 314.347 258.045 314.3 262.792C314.278 265.077 313.898 267.269 313.348 269.217C327.467 269.654 346.637 271.383 363.625 275.346C373.175 277.574 382.225 280.551 389.336 284.518C396.374 288.443 402.091 293.669 403.889 300.649L404.007 301.108L400.992 480.31L399.434 481.325C343.671 517.635 187.034 567.837 3.183 481.56L1.56945 480.803L1.23285 479.053C0.314199 474.276 -0.017093 467.222 0.000674406 459.144C0.0185901 450.998 0.39439 441.58 0.963396 431.959C2.10156 412.713 4.02086 392.519 5.44319 379.79L5.63344 378.087L107.825 315.565C107.83 315.562 107.835 315.558 107.841 315.555C110.729 313.74 115.204 310.503 119.127 306.776C121.089 304.912 122.851 302.982 124.2 301.1C125.569 299.19 126.381 297.509 126.668 296.132C127.712 291.118 128.867 284.401 129.707 278.051C130.558 271.615 131.043 265.856 130.852 262.613C130.763 261.1 131.216 259.631 131.737 258.419C132.281 257.151 133.048 255.833 133.922 254.523C135.673 251.901 138.072 249 140.659 246.144C145.193 241.138 150.534 236.019 154.596 232.357C153.207 227.982 149.825 218.73 143.681 205.253C133.484 201.385 124.752 193.837 118.792 185.461C112.936 177.232 109.36 167.618 110.302 159.365C106.911 153.509 101.723 145.171 96.4834 137.981C93.6997 134.162 90.9596 130.747 88.5111 128.216C87.2865 126.95 86.191 125.964 85.2491 125.271C84.2652 124.546 83.6588 124.298 83.4004 124.239L81.2696 123.755L80.7691 121.628C78.9222 113.779 77.6487 93.5358 86.4806 72.6926C87.7732 69.6419 88.791 66.8949 89.7391 64.3168C89.7853 64.1912 89.8314 64.0658 89.8774 63.9407C90.7654 61.5251 91.6193 59.2021 92.5721 57.011C94.6272 52.285 97.1863 48.0632 101.863 43.8281C110.903 35.6409 127.74 27.5708 163.741 14.2291C219.56 -6.45651 254.037 3.71855 266.493 13.563C268.083 12.9599 270.056 12.0421 271.952 10.8245C274.673 9.07679 276.836 6.96942 277.802 4.67326L279.77 0ZM117.346 159.501C116.404 165.408 118.936 173.59 124.496 181.403C130.055 189.217 138.211 196.024 147.378 199.145L148.802 199.63L149.43 200.996C157.29 218.083 161.042 229.066 161.967 232.612L162.511 234.7L160.891 236.124C156.847 239.68 150.806 245.368 145.847 250.843C143.361 253.588 141.22 256.199 139.744 258.41C139.004 259.517 138.485 260.446 138.168 261.183C137.891 261.826 137.85 262.14 137.842 262.2C137.84 262.214 137.84 262.214 137.84 262.201C138.074 266.186 137.496 272.545 136.646 278.969C135.785 285.481 134.602 292.369 133.52 297.559C132.957 300.263 131.554 302.856 129.89 305.178C128.205 307.529 126.114 309.793 123.948 311.851C119.623 315.961 114.753 319.48 111.547 321.493L111.53 321.504L12.2117 382.268C10.8223 394.96 9.03115 414.111 7.95119 432.372C7.38641 441.922 7.01817 451.196 7.00066 459.159C6.98532 466.132 7.24106 471.932 7.82062 476.001C186.834 559.271 338.935 511.399 394.056 476.46L396.992 301.97C395.766 297.886 392.086 294.067 385.926 290.631C379.624 287.116 371.285 284.321 362.035 282.163C343.561 277.853 322.212 276.251 308.204 276.111L302.36 276.052L305.17 270.928C306.153 269.135 307.268 265.998 307.301 262.723C307.332 259.555 306.371 256.457 303.459 254.051C293.528 245.847 286.543 236.933 286.036 227.302C285.799 222.797 286.624 217.218 287.742 211.416C288.332 208.352 289.064 204.954 289.803 201.516C290.432 198.593 291.067 195.641 291.627 192.844C293.553 183.21 294.086 168.905 294.109 162.492C290.551 161.382 287.019 159.579 283.969 157.401C279.959 154.538 276.33 150.696 274.805 146.38C273.519 143.622 271.855 139.248 270.878 134.699C270.067 130.923 269.577 126.368 270.746 122.499C269.327 122.603 267.472 122.704 265.562 122.804C265.049 122.831 264.534 122.858 264.023 122.884C263.047 122.935 262.084 122.985 261.176 123.034C261.786 124.667 262.24 126.413 262.532 128.175C263.186 132.126 263.092 136.537 261.844 140.551C258.397 152.171 253.749 159.974 244.841 162.073C242.988 162.51 240.309 162.558 237.526 162.349C234.65 162.134 231.33 161.619 228.07 160.745C224.832 159.876 221.507 158.613 218.718 156.83C215.973 155.075 213.452 152.62 212.353 149.263C209.108 140.606 207.526 135.41 207.513 130.114C198.613 131.67 186.393 134.251 174.444 137.669C160.221 141.738 146.983 146.831 139.933 152.471L137.851 154.137L135.693 152.571C133.265 150.811 129.571 149.297 126.229 149.751C123.369 150.14 119.771 152.114 117.346 159.501ZM208.514 122.842C210.419 117.133 215.588 113.016 223.985 109.518C235.251 104.823 243.261 106.845 248.794 110.384C251.433 112.072 253.394 114.032 254.718 115.362C255.165 115.812 255.489 116.137 255.741 116.376C257.548 116.209 260.678 116.047 263.667 115.893C264.183 115.867 264.695 115.84 265.196 115.814C267.137 115.712 268.944 115.613 270.285 115.514C270.963 115.465 271.472 115.419 271.803 115.378C271.807 115.378 271.811 115.377 271.815 115.377C272.17 115.25 272.559 115.174 272.978 115.169C273.915 115.158 274.61 115.508 274.977 115.741C275.013 115.763 275.048 115.787 275.083 115.81C277.527 113.463 280.469 111.743 282.97 110.544C284.394 109.861 285.767 109.305 286.976 108.868C286.957 108.828 286.939 108.788 286.92 108.747C285.726 106.172 283.999 102.177 281.605 96.1912L279.685 91.3913H284.831C284.835 91.3912 284.84 91.3911 284.847 91.3908C284.88 91.3896 284.947 91.3867 285.046 91.3793C285.242 91.3647 285.561 91.333 285.974 91.265C286.803 91.1285 287.994 90.8493 289.347 90.2819C292.012 89.1645 295.385 86.9033 297.929 82.1776C300.508 77.3883 301.664 69.5771 302.088 62.4764C302.294 59.0188 302.32 55.8893 302.294 53.6237C302.287 53.0101 302.277 52.4612 302.265 51.9876C301.892 51.8371 301.439 51.6627 300.894 51.4636C298.541 50.6038 294.669 49.3562 288.595 47.6688L282.585 45.9993L287.141 41.7396C291.96 37.2349 294.595 33.9807 295.817 31.4661C296.918 29.2007 296.824 27.6764 296.123 26.1315C295.271 24.2536 293.417 22.1316 290.25 19.1709C288.973 17.9771 287.56 16.7142 285.994 15.3155C285.666 15.0221 285.331 14.7228 284.989 14.4168C283.959 13.4953 282.877 12.5225 281.751 11.492C279.991 13.6504 277.812 15.3801 275.734 16.7145C272.428 18.8376 268.963 20.2251 266.684 20.8763L264.773 21.4223L263.325 20.0608C255.187 12.4094 223.348 -0.395185 166.174 20.7929C129.897 34.2367 114.422 41.8977 106.562 49.0165C102.788 52.4344 100.75 55.7593 98.9914 59.8024C98.1219 61.8021 97.3323 63.9495 96.4193 66.4327L96.3089 66.733C95.3587 69.3167 94.2905 72.2031 92.9258 75.4237C85.3873 93.2145 85.8869 110.503 87.2294 118.268C87.9949 118.661 88.7225 119.135 89.3995 119.634C90.7628 120.638 92.1572 121.917 93.542 123.349C96.3125 126.212 99.2695 129.919 102.141 133.859C106.24 139.483 110.282 145.747 113.513 151.064C116.583 146.02 120.717 143.436 125.286 142.815C129.907 142.187 134.339 143.672 137.587 145.493C146.059 139.572 159.404 134.691 172.519 130.939C185.752 127.154 199.274 124.379 208.514 122.842ZM292.085 107.548C292.084 107.548 292.083 107.548 292.083 107.548V111.048M253.566 123.24C253.373 123.173 253.202 123.1 253.057 123.031C252.497 122.764 252.034 122.419 251.703 122.148C251.112 121.665 250.466 121.015 249.905 120.45C249.854 120.399 249.805 120.348 249.755 120.299C248.448 118.985 246.955 117.517 245.023 116.282C241.415 113.974 235.82 112.17 226.678 115.979C217.818 119.671 215.348 123.076 214.812 126.473C213.967 131.836 214.758 135.743 218.935 146.881L218.966 146.964L218.993 147.049C219.398 148.321 220.486 149.652 222.488 150.932C224.472 152.2 227.062 153.226 229.884 153.984C232.685 154.735 235.571 155.183 238.048 155.369C240.618 155.561 242.44 155.447 243.236 155.26C248.139 154.104 251.783 149.866 255.139 138.54L255.146 138.515L255.154 138.49C256.023 135.708 256.139 132.419 255.626 129.319C255.219 126.863 254.456 124.753 253.566 123.24ZM285.996 116.856C282.398 118.581 279.154 120.921 277.781 123.667C276.825 125.579 276.812 128.994 277.722 133.229C278.587 137.256 280.104 141.209 281.217 143.566L281.304 143.751L281.369 143.944C282.19 146.38 284.561 149.222 288.037 151.705C291.455 154.146 295.486 155.908 299.013 156.488C300.68 156.762 302.12 156.754 303.278 156.514C307.954 155.547 311.308 152.028 313.506 147.219C315.711 142.397 316.475 136.814 316.226 132.956L316.047 130.181C316.02 130.156 315.994 130.13 315.968 130.104L315.258 129.394L315.033 128.416C313.82 123.164 310.098 119.729 305.437 117.529C300.838 115.358 295.68 114.584 292.318 114.549C292.257 114.562 292.178 114.58 292.078 114.605C291.729 114.69 291.223 114.83 290.6 115.028C289.353 115.425 287.713 116.033 285.996 116.856Z" fill="#150E0E" fill-opacity="0.37"/>
</svg>
