<svg width="67" height="66" viewBox="0 0 67 66" fill="none" xmlns="http://www.w3.org/2000/svg">
<g clip-path="url(#clip0_242_153)">
<path d="M51.0312 0H15.9688C7.4256 0 0.5 6.9256 0.5 15.4688V50.5312C0.5 59.0744 7.4256 66 15.9688 66H51.0312C59.5744 66 66.5 59.0744 66.5 50.5312V15.4688C66.5 6.9256 59.5744 0 51.0312 0Z" fill="#00005B"/>
<path d="M14.4219 47.0972V18.7721C14.4219 18.5798 14.5044 18.4697 14.697 18.4697C15.1644 18.4697 15.6045 18.4697 16.2369 18.4421C16.8969 18.4148 17.5845 18.4148 18.327 18.3872C19.0695 18.3596 19.8669 18.3596 20.7195 18.3323C21.5718 18.3047 22.3968 18.3047 23.2218 18.3047C25.4769 18.3047 27.3468 18.5798 28.887 19.1573C30.2674 19.626 31.5262 20.3963 32.5719 21.4121C33.458 22.3012 34.1426 23.3703 34.5795 24.5471C34.992 25.7021 35.2119 26.8847 35.2119 28.1222C35.2119 30.4871 34.662 32.4398 33.5619 33.9797C32.4618 35.5196 30.9219 36.6746 29.1345 37.3346C27.2643 38.0222 25.2018 38.2697 22.947 38.2697C22.287 38.2697 21.8469 38.2697 21.5718 38.2421C21.297 38.2148 20.9118 38.2148 20.3895 38.2148V47.0423C20.4168 47.2346 20.2794 47.3996 20.0868 47.4272H14.7519C14.532 47.4272 14.4219 47.3171 14.4219 47.0696V47.0972ZM20.4168 23.8046V33.0446C20.802 33.0722 21.1593 33.0998 21.4893 33.0998H22.947C24.0195 33.0998 25.092 32.9348 26.1093 32.6048C26.9895 32.3573 27.7593 31.8347 28.3644 31.1471C28.9419 30.4598 29.217 29.5247 29.217 28.3148C29.2428 27.4554 29.0233 26.6064 28.5843 25.8671C28.1169 25.1522 27.4569 24.6023 26.6595 24.2996C25.6419 23.8871 24.5418 23.7221 23.4144 23.7497C22.6995 23.7497 22.0668 23.7497 21.5445 23.7773C20.9943 23.7497 20.6094 23.7773 20.4168 23.8046ZM39.1719 25.4273H43.9845C44.2595 25.4273 44.4795 25.6196 44.562 25.8671C44.6445 26.0873 44.6994 26.3072 44.727 26.5547C44.7819 26.8298 44.837 27.1322 44.8644 27.4073C44.892 27.7097 44.9195 28.0397 44.9195 28.3973C45.7452 27.4333 46.743 26.6312 47.862 26.0321C49.127 25.3172 50.5845 24.9596 52.0419 24.9596C52.2345 24.9323 52.3995 25.0697 52.427 25.2623V30.7346C52.427 30.9548 52.2894 31.0373 51.987 31.0373C50.997 31.0097 49.9794 31.0922 49.017 31.3121C48.2195 31.4771 47.4495 31.7246 46.707 32.0546C46.1844 32.3021 45.6894 32.6321 45.3045 33.0722V47.0972C45.3045 47.3723 45.1944 47.4821 44.9469 47.4821H39.5295C39.3095 47.5097 39.117 47.3723 39.0894 47.1521V31.8071C39.0894 31.1471 39.0894 30.4598 39.062 29.7446C39.0345 29.0297 39.0345 28.3148 39.0069 27.5996C39.0069 26.9672 38.952 26.3621 38.897 25.7297C38.8695 25.5923 38.952 25.4546 39.0894 25.4273C39.0894 25.3997 39.1445 25.3997 39.1719 25.4273Z" fill="#9999FF"/>
</g>
<defs>
<clipPath id="clip0_242_153">
<rect width="66" height="66" fill="white" transform="translate(0.5)"/>
</clipPath>
</defs>
</svg>
