<svg width="67" height="66" viewBox="0 0 67 66" fill="none" xmlns="http://www.w3.org/2000/svg">
<path d="M51.0312 0H15.9688C7.4256 0 0.5 6.9256 0.5 15.4688V50.5312C0.5 59.0744 7.4256 66 15.9688 66H51.0312C59.5744 66 66.5 59.0744 66.5 50.5312V15.4688C66.5 6.9256 59.5744 0 51.0312 0Z" fill="#242938"/>
<path d="M33.5002 37.8858C36.1567 37.8858 38.3099 35.7323 38.3099 33.076C38.3099 30.4198 36.1567 28.2663 33.5002 28.2663C30.8439 28.2663 28.6904 30.4198 28.6904 33.076C28.6904 35.7323 30.8439 37.8858 33.5002 37.8858Z" fill="#00D8FF"/>
<path d="M33.5005 23.2967C39.9582 23.2967 45.9572 24.2233 50.4806 25.7807C55.9305 27.6568 59.2812 30.5007 59.2812 33.076C59.2812 35.7596 55.7301 38.7809 49.8775 40.7199C45.453 42.1858 39.6305 42.951 33.5005 42.951C27.2156 42.951 21.264 42.2328 16.7894 40.7037C11.1283 38.7688 7.71875 35.7086 7.71875 33.076C7.71875 30.5216 10.9182 27.6996 16.2915 25.8263C20.8316 24.2434 26.9786 23.2967 33.4995 23.2967H33.5005Z" stroke="#00D8FF" stroke-width="2.29737"/>
<path d="M24.9868 28.2145C28.2131 22.6205 32.0125 17.8865 35.6213 14.7464C39.9691 10.9624 44.107 9.48054 46.3376 10.7668C48.6623 12.1074 49.5056 16.6934 48.2616 22.7318C47.3219 27.2969 45.0753 32.7228 42.0128 38.0333C38.8729 43.4778 35.2777 48.2746 31.7181 51.3859C27.2138 55.3232 22.8591 56.7481 20.5788 55.433C18.366 54.1579 17.5198 49.9759 18.5815 44.3853C19.4784 39.6614 21.7294 33.8634 24.9858 28.2145H24.9868Z" stroke="#00D8FF" stroke-width="2.29737"/>
<path d="M24.9951 38.0475C21.7598 32.4597 19.5571 26.8027 18.6377 22.108C17.5309 16.4513 18.3134 12.1265 20.5422 10.8364C22.8648 9.49165 27.2587 11.0514 31.8689 15.145C35.3545 18.2397 38.9337 22.8951 42.005 28.2003C45.154 33.6397 47.514 39.1504 48.4321 43.7879C49.5938 49.6568 48.6535 54.1409 46.3752 55.4596C44.1647 56.7394 40.1194 55.3846 35.8059 51.6726C32.1615 48.5366 28.2624 43.691 24.9951 38.0475Z" stroke="#00D8FF" stroke-width="2.29737"/>
</svg>
