<svg width="67" height="66" viewBox="0 0 67 66" fill="none" xmlns="http://www.w3.org/2000/svg">
<g clip-path="url(#clip0_242_99)">
<path d="M51.0312 0H15.9688C7.4256 0 0.5 6.9256 0.5 15.4688V50.5312C0.5 59.0744 7.4256 66 15.9688 66H51.0312C59.5744 66 66.5 59.0744 66.5 50.5312V15.4688C66.5 6.9256 59.5744 0 51.0312 0Z" fill="#242938"/>
<path fill-rule="evenodd" clip-rule="evenodd" d="M21.8984 28.3594C23.4453 22.1719 27.3128 19.0781 33.5 19.0781C42.7812 19.0781 43.9414 26.0391 48.582 27.1992C51.676 27.9729 54.3828 26.8128 56.7031 23.7188C55.1565 29.906 51.2888 33 45.1016 33C35.8203 33 34.6602 26.0391 30.0195 24.8789C26.9255 24.1055 24.2188 25.2656 21.8984 28.3594ZM10.2969 42.2812C11.8438 36.094 15.7109 33 21.8984 33C31.1797 33 32.3398 39.9609 36.9805 41.1211C40.0745 41.8948 42.7812 40.7346 45.1016 37.6406C43.5549 43.8279 39.6872 46.9219 33.5 46.9219C24.2188 46.9219 23.0586 39.9609 18.418 38.8008C15.3242 38.0271 12.6172 39.1872 10.2969 42.2812Z" fill="url(#paint0_linear_242_99)"/>
</g>
<defs>
<linearGradient id="paint0_linear_242_99" x1="22.8008" y1="19.0781" x2="42.6523" y2="47.8242" gradientUnits="userSpaceOnUse">
<stop stop-color="#32B1C1"/>
<stop offset="1" stop-color="#14C6B7"/>
</linearGradient>
<clipPath id="clip0_242_99">
<rect width="66" height="66" fill="white" transform="translate(0.5)"/>
</clipPath>
</defs>
</svg>
