<svg width="90" height="90" viewBox="0 0 90 90" fill="none" xmlns="http://www.w3.org/2000/svg">
<path d="M38.3288 9.37688C39.8025 7.425 42.0862 5.625 45 5.625C47.9138 5.625 50.1975 7.425 51.6712 9.37688C53.1844 11.3738 54.2025 13.95 54.54 16.5038C54.8775 19.035 54.5962 21.9038 53.0381 24.2381C51.3787 26.7188 48.5944 28.125 45 28.125C41.4 28.125 38.6213 26.7188 36.9619 24.2381C35.4094 21.8981 35.1225 19.0294 35.46 16.5038C35.7975 13.95 36.8156 11.3738 38.3288 9.37688ZM41.6475 21.1162C42.0975 21.7912 42.975 22.5 45 22.5C47.025 22.5 47.9025 21.7969 48.3525 21.1162C48.9094 20.2894 49.185 18.9394 48.96 17.2462C48.7492 15.6301 48.1403 14.0915 47.1881 12.7687C46.2712 11.5594 45.4613 11.25 45 11.25C44.5387 11.25 43.7288 11.5594 42.8119 12.7687C41.8597 14.0915 41.2508 15.6301 41.04 17.2462C40.815 18.9337 41.0962 20.2837 41.6475 21.1162ZM11.25 45C11.25 42.0163 12.4353 39.1548 14.545 37.045C16.6548 34.9353 19.5163 33.75 22.5 33.75H67.5C70.4837 33.75 73.3452 34.9353 75.4549 37.045C77.5647 39.1548 78.75 42.0163 78.75 45V73.125H81.5625C82.3084 73.125 83.0238 73.4213 83.5512 73.9488C84.0787 74.4762 84.375 75.1916 84.375 75.9375C84.375 76.6834 84.0787 77.3988 83.5512 77.9262C83.0238 78.4537 82.3084 78.75 81.5625 78.75H8.4375C7.69158 78.75 6.97621 78.4537 6.44876 77.9262C5.92132 77.3988 5.625 76.6834 5.625 75.9375C5.625 75.1916 5.92132 74.4762 6.44876 73.9488C6.97621 73.4213 7.69158 73.125 8.4375 73.125H11.25V45ZM16.875 73.125H73.125V56.3625C72.6187 56.8294 72.0956 57.3075 71.55 57.7913C69.75 59.3888 67.6969 61.0537 65.6494 62.325C63.7144 63.5344 61.3575 64.6875 59.0625 64.6875C54.9675 64.6875 52.3575 61.8188 50.6531 59.94C50.5373 59.814 50.4211 59.6883 50.3044 59.5631C48.3075 57.3919 47.0138 56.25 45 56.25C42.9862 56.25 41.6925 57.3919 39.6956 59.5631L39.3469 59.94C37.6425 61.8188 35.0325 64.6875 30.9375 64.6875C28.7213 64.6875 26.3981 63.5063 24.525 62.3194C22.449 60.964 20.4767 59.4561 18.6244 57.8081C18.0341 57.2911 17.4509 56.7661 16.875 56.2331V73.125ZM16.875 48.375C18.6215 50.178 20.4399 51.91 22.3256 53.5669C24.0469 55.0687 25.8638 56.5144 27.5231 57.5606C29.3231 58.6969 30.4537 59.0625 30.9375 59.0625C32.3887 59.0625 33.3675 58.1288 35.5556 55.7494L35.5725 55.7325C37.4625 53.685 40.275 50.625 45 50.625C49.725 50.625 52.5375 53.685 54.4275 55.7325L54.4444 55.7494C56.6381 58.1288 57.6113 59.0625 59.0625 59.0625C59.6812 59.0625 60.8962 58.6688 62.6681 57.555C64.4891 56.3712 66.2121 55.0431 67.8206 53.5838C69.6669 51.9407 71.4369 50.2139 73.125 48.4087V45C73.125 43.5082 72.5324 42.0774 71.4775 41.0225C70.4226 39.9676 68.9918 39.375 67.5 39.375H22.5C21.0082 39.375 19.5774 39.9676 18.5225 41.0225C17.4676 42.0774 16.875 43.5082 16.875 45V48.375Z" fill="white"/>
</svg>
